<svg width="809" height="606" viewBox="0 0 809 606" fill="none" xmlns="http://www.w3.org/2000/svg">
<path d="M585.987 316.332C585.974 351.458 576.059 385.888 557.35 415.778C538.642 445.667 511.875 469.839 480.042 485.593C478.412 486.401 476.766 487.186 475.104 487.949C432.135 507.614 383.327 510.979 338.002 497.402C333.554 496.062 329.175 494.57 324.867 492.927C285.47 477.897 252.198 450.471 230.21 414.9C208.222 379.328 198.744 337.598 203.245 296.175C207.746 254.752 225.975 215.95 255.108 185.782C284.24 155.613 322.648 135.763 364.38 129.308C374.203 127.809 384.128 127.057 394.068 127.06C500.063 127.06 585.987 211.799 585.987 316.332Z" fill="#F2F2F2"/>
<path d="M599.908 343.307C628.519 312.672 643.24 266.807 627.815 228.036C605.087 267.393 568.976 297.553 525.871 313.181C509.225 319.148 490.081 324.076 481.039 339.096C475.412 348.441 475.013 360.139 477.563 370.712C480.113 381.286 485.351 391.009 490.537 400.6L490.57 403.313C531.087 391.569 571.298 373.943 599.908 343.307Z" fill="#E6E6E6"/>
<path d="M626.954 228.243C622.097 262.382 606.456 294.144 582.254 319.018C577.036 324.315 571.275 329.242 564.616 332.698C558.098 336.019 550.799 337.557 543.475 337.154C536.638 336.914 529.673 335.887 522.896 337.29C515.753 338.769 510.101 343.317 506.434 349.453C501.948 356.96 500.465 365.609 499.312 374.117C498.032 383.564 496.854 393.395 491.384 401.526C490.722 402.511 492.31 403.467 492.972 402.484C502.489 388.339 499.282 370.276 505.697 355.025C508.691 347.909 513.877 341.639 521.638 339.484C528.424 337.599 535.607 338.651 542.527 338.954C549.794 339.271 556.71 338.391 563.363 335.356C570.169 332.252 576.137 327.538 581.47 322.395C593.474 310.644 603.529 297.104 611.269 282.272C620.196 265.393 626.131 247.132 628.815 228.28C628.98 227.113 627.118 227.083 626.954 228.243V228.243Z" fill="white"/>
<path d="M590.525 311.461C595.308 314.899 601.174 316.549 607.076 316.115C612.978 315.681 618.532 313.192 622.746 309.093C623.595 308.261 622.324 306.92 621.473 307.753C617.557 311.577 612.383 313.895 606.886 314.288C601.389 314.681 595.931 313.123 591.496 309.895C590.532 309.195 589.566 310.765 590.525 311.461V311.461Z" fill="white"/>
<path d="M546.925 337.727C544.944 325.956 547.534 313.881 554.179 303.91C554.838 302.923 553.25 301.966 552.591 302.952C545.696 313.341 543.026 325.912 545.115 338.156C545.315 339.323 547.124 338.887 546.925 337.727Z" fill="white"/>
<path d="M617.735 265.218C615.603 264.268 613.744 262.81 612.325 260.977C610.905 259.143 609.97 256.99 609.602 254.712C609.418 253.543 607.609 253.981 607.793 255.142C608.211 257.657 609.247 260.033 610.81 262.063C612.374 264.092 614.418 265.713 616.763 266.783C616.976 266.903 617.226 266.938 617.464 266.881C617.702 266.825 617.909 266.681 618.043 266.48C618.17 266.272 618.21 266.022 618.152 265.786C618.094 265.55 617.944 265.346 617.735 265.218V265.218Z" fill="white"/>
<path d="M491.955 184.069C492.05 184.802 492.144 185.535 492.227 186.278C493.444 196.141 493.846 206.085 493.43 216.011C493.41 216.779 493.378 217.557 493.336 218.323C492.075 242.228 486.325 265.695 476.378 287.53C472.412 296.215 467.781 304.59 462.526 312.582C455.269 323.619 446.509 335.017 443.462 347.409C443.13 348.699 442.878 350.007 442.71 351.327L487.211 403.141C487.372 403.209 487.522 403.287 487.683 403.355L489.364 405.504C489.664 405.111 489.967 404.696 490.267 404.303C490.442 404.075 490.608 403.836 490.783 403.609C490.896 403.453 491.009 403.297 491.121 403.163C491.159 403.112 491.196 403.06 491.223 403.018C491.334 402.884 491.423 402.748 491.523 402.625C493.222 400.312 494.907 397.984 496.579 395.64C496.591 395.63 496.591 395.63 496.593 395.608C509.286 377.716 520.576 358.622 528.568 338.444C528.808 337.837 529.061 337.221 529.281 336.59C532.832 327.475 535.622 318.089 537.623 308.526C538.701 303.287 539.51 297.996 540.046 292.676C541.405 278.926 540.561 265.05 537.548 251.559C531.536 224.664 516.869 199.965 493.734 185.181C493.142 184.803 492.56 184.436 491.955 184.069Z" fill="#E6E6E6"/>
<path d="M491.389 184.742C508.352 214.884 515.255 249.531 511.115 283.762C510.183 291.09 508.591 298.444 505.384 305.158C502.208 311.679 497.318 317.242 491.225 321.269C485.619 325.136 479.431 328.452 474.877 333.596C470.076 339.018 468.34 346.006 469.158 353.082C470.159 361.74 474.255 369.526 478.529 377.004C483.274 385.306 488.335 393.856 488.931 403.595C489.004 404.775 490.856 404.596 490.784 403.417C489.747 386.472 476.16 373.955 471.972 357.968C470.017 350.509 470.331 342.424 475.211 336.095C479.479 330.56 485.857 327.135 491.567 323.268C497.562 319.207 502.548 314.397 506.007 308.024C509.546 301.505 511.433 294.197 512.551 286.924C514.961 270.414 514.725 253.633 511.849 237.195C508.673 218.417 502.264 200.313 492.897 183.667C492.317 182.637 490.812 183.719 491.389 184.742V184.742Z" fill="white"/>
<path d="M513.106 272.817C519.024 272.722 524.715 270.556 529.163 266.705C533.611 262.855 536.526 257.57 537.387 251.795C537.557 250.626 535.723 250.31 535.553 251.481C534.761 256.86 532.045 261.782 527.895 265.36C523.746 268.937 518.437 270.934 512.926 270.99C511.728 271.004 511.915 272.831 513.106 272.817V272.817Z" fill="white"/>
<path d="M494.329 319.677C485.561 311.455 480.258 300.276 479.476 288.369C479.4 287.189 477.547 287.368 477.624 288.547C478.46 300.936 484.003 312.558 493.146 321.095C494.018 321.908 495.196 320.486 494.329 319.677L494.329 319.677Z" fill="white"/>
<path d="M506.601 219.738C504.319 220.245 501.945 220.186 499.692 219.564C497.439 218.943 495.378 217.78 493.694 216.179C492.833 215.355 491.656 216.778 492.511 217.596C494.381 219.357 496.658 220.639 499.146 221.331C501.633 222.022 504.255 222.103 506.781 221.565C507.024 221.534 507.245 221.413 507.4 221.227C507.556 221.041 507.633 220.803 507.617 220.563C507.592 220.321 507.471 220.099 507.281 219.944C507.091 219.79 506.846 219.716 506.601 219.738H506.601Z" fill="white"/>
<path d="M208.359 393.342C185.533 368.9 173.788 332.307 186.095 301.374C204.228 332.775 233.038 356.837 267.429 369.306C280.71 374.067 295.984 377.998 303.198 389.981C307.687 397.437 308.005 406.77 305.971 415.206C303.936 423.642 299.757 431.4 295.62 439.051L295.594 441.216C263.267 431.846 231.186 417.783 208.359 393.342Z" fill="#E6E6E6"/>
<path d="M186.782 301.539C190.657 328.777 203.135 354.117 222.445 373.962C226.525 378.307 231.274 381.991 236.517 384.877C241.717 387.526 247.541 388.754 253.384 388.433C258.839 388.241 264.396 387.422 269.802 388.541C272.561 389.154 275.158 390.336 277.421 392.008C279.685 393.681 281.564 395.806 282.936 398.245C286.516 404.234 287.699 411.135 288.619 417.923C289.64 425.459 290.58 433.304 294.944 439.79C295.473 440.576 294.205 441.339 293.677 440.555C286.084 429.269 288.643 414.858 283.524 402.69C281.136 397.013 276.998 392.011 270.806 390.291C265.392 388.787 259.661 389.627 254.14 389.868C248.444 390.264 242.737 389.279 237.516 386.998C232.141 384.384 227.256 380.887 223.071 376.657C213.493 367.281 205.471 356.479 199.296 344.646C192.173 331.179 187.438 316.61 185.297 301.569C185.165 300.638 186.651 300.614 186.782 301.539L186.782 301.539Z" fill="white"/>
<path d="M215.846 367.933C212.03 370.676 207.35 371.992 202.641 371.646C197.932 371.3 193.501 369.315 190.139 366.044C189.461 365.38 190.476 364.31 191.155 364.975C194.279 368.026 198.407 369.876 202.793 370.189C207.178 370.502 211.533 369.259 215.071 366.684C215.84 366.125 216.611 367.378 215.846 367.933V367.933Z" fill="white"/>
<path d="M250.632 388.889C252.212 379.498 250.146 369.864 244.844 361.909C244.318 361.121 245.585 360.358 246.111 361.144C251.612 369.433 253.742 379.463 252.075 389.232C251.916 390.163 250.473 389.815 250.632 388.889V388.889Z" fill="white"/>
<path d="M194.137 331.039C195.838 330.281 197.321 329.118 198.453 327.655C199.586 326.192 200.332 324.475 200.625 322.657C200.773 321.725 202.216 322.074 202.069 323C201.736 325.007 200.909 326.903 199.662 328.522C198.414 330.141 196.783 331.434 194.912 332.288C194.743 332.383 194.543 332.411 194.353 332.366C194.163 332.321 193.998 332.207 193.891 332.046C193.789 331.88 193.758 331.681 193.804 331.493C193.85 331.304 193.97 331.141 194.137 331.039V331.039Z" fill="white"/>
<path d="M294.488 266.296C294.413 266.88 294.337 267.465 294.271 268.059C293.301 275.927 292.98 283.861 293.311 291.78C293.327 292.393 293.353 293.014 293.386 293.625C294.392 312.697 298.98 331.42 306.916 348.84C310.081 355.77 313.775 362.452 317.968 368.828C323.758 377.634 330.747 386.727 333.178 396.614C333.443 397.643 333.644 398.687 333.778 399.74L298.273 441.079C298.145 441.133 298.026 441.196 297.897 441.25L296.556 442.964C296.316 442.651 296.075 442.32 295.835 442.006C295.695 441.824 295.563 441.633 295.424 441.452C295.333 441.328 295.243 441.203 295.154 441.097C295.124 441.056 295.094 441.014 295.073 440.981C294.984 440.874 294.913 440.766 294.833 440.667C293.478 438.822 292.133 436.964 290.799 435.094C290.79 435.086 290.79 435.086 290.788 435.069C280.661 420.794 271.654 405.56 265.278 389.462C265.086 388.977 264.884 388.485 264.709 387.982C261.875 380.71 259.649 373.222 258.053 365.592C257.193 361.412 256.547 357.191 256.12 352.946C255.036 341.976 255.709 330.905 258.113 320.141C262.91 298.684 274.611 278.978 293.069 267.183C293.541 266.882 294.006 266.589 294.488 266.296Z" fill="#E6E6E6"/>
<path d="M294.94 266.833C281.406 290.881 275.899 318.524 279.202 345.834C279.807 351.726 281.35 357.487 283.774 362.905C286.308 368.107 290.209 372.546 295.071 375.758C299.543 378.844 304.48 381.489 308.114 385.593C309.942 387.721 311.294 390.206 312.08 392.886C312.867 395.565 313.07 398.378 312.676 401.14C311.878 408.047 308.61 414.26 305.2 420.226C301.415 426.85 297.376 433.671 296.901 441.441C296.843 442.383 295.365 442.239 295.423 441.299C296.25 427.78 307.091 417.793 310.432 405.039C311.991 399.087 311.741 392.636 307.847 387.587C304.442 383.171 299.354 380.439 294.798 377.353C290.009 374.288 286.053 370.112 283.277 365.191C280.581 359.912 278.816 354.22 278.056 348.357C276.133 335.185 276.322 321.796 278.616 308.681C281.15 293.7 286.264 279.256 293.737 265.975C294.199 265.153 295.4 266.016 294.94 266.833H294.94Z" fill="white"/>
<path d="M277.613 337.102C272.892 337.027 268.351 335.298 264.803 332.226C261.254 329.154 258.929 324.937 258.241 320.33C258.105 319.397 259.569 319.145 259.705 320.079C260.337 324.371 262.503 328.298 265.814 331.152C269.124 334.007 273.36 335.6 277.757 335.644C278.713 335.655 278.563 337.113 277.613 337.102V337.102Z" fill="white"/>
<path d="M292.595 374.489C299.59 367.929 303.821 359.01 304.444 349.51C304.505 348.569 305.983 348.711 305.922 349.652C305.255 359.536 300.833 368.809 293.538 375.62C292.842 376.268 291.903 375.134 292.595 374.489V374.489Z" fill="white"/>
<path d="M282.803 294.754C284.624 295.159 286.518 295.111 288.316 294.615C290.113 294.12 291.757 293.191 293.101 291.914C293.788 291.257 294.727 292.392 294.044 293.045C292.553 294.45 290.736 295.472 288.751 296.024C286.767 296.576 284.675 296.641 282.66 296.212C282.466 296.187 282.29 296.09 282.166 295.942C282.042 295.793 281.98 295.604 281.993 295.412C282.013 295.219 282.109 295.042 282.261 294.918C282.413 294.795 282.608 294.736 282.803 294.754V294.754Z" fill="white"/>
<path d="M696.276 292.09C703.422 296.874 711.366 302.257 713.669 310.989C714.198 312.854 714.339 314.805 714.085 316.725C713.83 318.646 713.183 320.495 712.185 322.163C710.351 325.178 707.619 327.546 704.954 329.828C701.788 332.54 698.597 335.205 696.14 338.59C695.015 340.141 697.615 341.619 698.73 340.083C703.284 333.806 710.852 330.251 714.859 323.515C719.599 315.549 716.436 306.102 710.562 299.653C706.896 295.629 702.3 292.556 697.79 289.536C696.189 288.465 694.687 291.026 696.276 292.09H696.276Z" fill="#E6E7E8"/>
<path d="M721.266 292.09C728.412 296.874 736.355 302.257 738.658 310.989C739.188 312.854 739.329 314.805 739.074 316.725C738.819 318.646 738.173 320.495 737.174 322.163C735.341 325.178 732.608 327.546 729.943 329.828C726.777 332.54 723.586 335.205 721.13 338.59C720.005 340.141 722.605 341.619 723.719 340.083C728.273 333.806 735.841 330.251 739.849 323.515C744.589 315.549 741.426 306.102 735.552 299.653C731.886 295.629 727.289 292.556 722.779 289.536C721.178 288.465 719.676 291.026 721.265 292.09H721.266Z" fill="#E6E7E8"/>
<path d="M112.871 292.09C105.725 296.874 97.7813 302.257 95.4784 310.989C94.949 312.854 94.8075 314.805 95.0625 316.725C95.3175 318.646 95.9637 320.495 96.9622 322.163C98.7959 325.178 101.528 327.546 104.193 329.828C107.359 332.54 110.55 335.205 113.007 338.59C114.132 340.141 111.532 341.619 110.417 340.083C105.863 333.806 98.2955 330.251 94.2876 323.515C89.5478 315.549 92.7109 306.102 98.5849 299.653C102.251 295.629 106.847 292.556 111.357 289.536C112.958 288.465 114.46 291.026 112.871 292.09H112.871Z" fill="#E6E7E8"/>
<path d="M87.8815 292.09C80.7353 296.874 72.7919 302.257 70.489 310.989C69.9596 312.854 69.8181 314.805 70.0731 316.725C70.328 318.646 70.9742 320.495 71.9727 322.163C73.8066 325.178 76.5387 327.546 79.2037 329.828C82.3697 332.54 85.5607 335.205 88.0172 338.59C89.1421 340.141 86.5424 341.619 85.4279 340.083C80.8739 333.806 73.306 330.251 69.2982 323.515C64.5582 315.549 67.7213 306.102 73.5954 299.653C77.2611 295.629 81.8578 292.556 86.368 289.536C87.969 288.465 89.471 291.026 87.8816 292.09H87.8815Z" fill="#E6E7E8"/>
<path d="M363.534 189.712C376.413 189.712 386.854 179.416 386.854 166.714C386.854 154.012 376.413 143.715 363.534 143.715C350.654 143.715 340.213 154.012 340.213 166.714C340.213 179.416 350.654 189.712 363.534 189.712Z" fill="#2F2E41"/>
<path d="M400.847 277.108C433.475 277.108 459.925 251.023 459.925 218.844C459.925 186.666 433.475 160.581 400.847 160.581C368.218 160.581 341.768 186.666 341.768 218.844C341.768 251.023 368.218 277.108 400.847 277.108Z" fill="#2F2E41"/>
<path d="M405.735 277.094C432.249 277.094 453.743 255.896 453.743 229.748C453.743 203.599 432.249 182.402 405.735 182.402C379.221 182.402 357.727 203.599 357.727 229.748C357.727 255.896 379.221 277.094 405.735 277.094Z" fill="#9E616A"/>
<path d="M438.338 181.485C429.925 176.427 420.289 173.691 410.438 173.563C400.586 173.435 390.88 175.92 382.335 180.757C373.791 185.594 366.721 192.607 361.864 201.061C357.008 209.516 354.545 219.102 354.731 228.817C379.193 234.874 404.893 239.509 430.981 230.265L437.141 215.395L440.773 230.276C448.718 233.479 456.683 236.188 464.648 230.245C464.973 220.558 462.715 210.956 458.097 202.399C453.48 193.842 446.667 186.631 438.338 181.485V181.485Z" fill="#2F2E41"/>
<path d="M314.295 317.318H314.232C311.069 317.348 307.972 316.433 305.347 314.693C302.723 312.953 300.694 310.469 299.529 307.57C298.275 304.633 297.953 301.391 298.605 298.271C299.256 295.15 300.851 292.298 303.179 290.088L303.448 289.825C312.535 280.8 317.654 268.611 317.7 255.893C317.711 237.933 307.516 221.334 297.96 207.186L296.199 204.583C286.675 190.533 276.827 176.004 274.32 159.268C271.659 141.493 278.483 122.732 291.707 111.471C305.433 99.7829 326.126 96.6416 342.029 103.832C358.512 111.286 369.116 129.854 366.693 147.023L366.668 147.201L360.876 152.34L360.662 152.324C346.947 151.281 333.284 160.194 328.87 173.036C325.897 181.681 326.966 191.154 328.563 200.103C331.949 219.056 337.642 237.537 345.518 255.146C345.918 256.04 346.323 256.938 346.733 257.839C351.324 267.977 356.072 278.46 354.253 289.318C351.38 306.478 332.911 316.52 316.993 317.255C316.091 317.298 315.192 317.319 314.295 317.318Z" fill="#2F2E41"/>
<path d="M523.143 456.413C510.188 468.027 495.687 477.844 480.042 485.593L476.733 475.084L474.064 485.326L475.104 487.949C473.954 488.481 472.795 488.994 471.635 489.496C470.645 489.93 469.656 490.354 468.666 490.768C432.428 505.781 392.402 509.51 353.955 501.454C352.945 501.247 351.946 501.03 350.946 500.803C346.578 499.818 342.26 498.674 338.002 497.402L343.959 475.557L338.661 449.148L324.867 492.927C309.209 486.949 294.415 478.968 280.866 469.189C285.104 442.168 290.072 409.736 293.141 387.289C294.25 379.088 295.11 372.227 295.59 367.436C295.978 362.946 296.87 358.512 298.248 354.216C298.925 352.139 299.791 350.126 300.837 348.203C301.057 347.779 301.297 347.375 301.537 346.98C301.767 346.596 302.007 346.231 302.257 345.876C308.394 336.856 316.271 337.408 316.271 337.408L339.781 332.884L347.128 331.464L350.116 330.892L353.775 330.183C356.569 329.645 359.219 328.535 361.552 326.926C363.884 325.316 365.849 323.242 367.319 320.837L377.305 304.483C379.421 301.026 382.541 298.275 386.261 296.587C386.711 296.39 387.171 296.202 387.631 296.025C389.661 295.275 391.801 294.852 393.968 294.773L408.102 294.231L413.82 294.004L421.626 293.708C423.468 293.636 425.312 293.815 427.104 294.241H427.114C427.744 294.388 428.343 294.556 428.953 294.763C433.676 296.335 437.649 299.563 440.118 303.832L447.096 315.898C448.665 318.612 450.855 320.928 453.49 322.661C456.126 324.395 459.135 325.498 462.279 325.884L464.958 326.21L467.967 326.584L475.573 327.521L489.468 329.236L489.498 329.759C492.156 329.966 499.733 331.503 504.811 342.18C505.151 342.88 505.471 343.629 505.781 344.407C507.559 349.141 508.692 354.087 509.149 359.115C509.179 359.332 509.199 359.549 509.219 359.766C510.919 376.85 517.506 420.412 523.143 456.413Z" fill="#2F2E41"/>
<path d="M409.94 501.089L408.992 505.456L406.063 504.835L406.934 500.83C409.682 488.191 410.924 475.279 410.633 462.357L406.953 298.972L406.883 296.035L406.843 294.25L408.362 294.221L409.841 294.191L409.991 300.974L413.632 462.65C413.923 475.561 412.684 488.462 409.94 501.089V501.089Z" fill="#D4FFFF"/>
<path d="M292.461 392.179L334.623 397.857L337.572 398.251L339.371 398.497L339.161 399.976L338.951 401.425L332.134 400.508L292.051 395.106L292.461 392.179Z" fill="#D4FFFF"/>
<path d="M418.288 296.951L413.82 294.004L408.362 294.221L408.102 294.231L406.883 296.035L406.952 298.972L409.991 300.973L413.84 303.507C414.276 303.797 414.766 303.998 415.282 304.101C415.797 304.203 416.328 304.205 416.845 304.104C417.361 304.004 417.852 303.805 418.289 303.517C418.727 303.229 419.103 302.859 419.396 302.428C419.688 301.997 419.892 301.513 419.994 301.004C420.097 300.496 420.097 299.972 419.994 299.463C419.891 298.954 419.687 298.471 419.394 298.04C419.102 297.609 418.726 297.239 418.288 296.951H418.288ZM417.728 301.328C417.507 301.652 417.195 301.904 416.829 302.053C416.464 302.201 416.062 302.239 415.674 302.162C415.286 302.086 414.93 301.898 414.651 301.621C414.372 301.345 414.182 300.994 414.105 300.611C414.029 300.229 414.069 299.832 414.22 299.472C414.372 299.112 414.628 298.804 414.957 298.588C415.286 298.371 415.672 298.256 416.067 298.256C416.463 298.256 416.849 298.371 417.178 298.588C417.618 298.88 417.923 299.333 418.026 299.846C418.129 300.36 418.022 300.893 417.728 301.328V301.328Z" fill="#D4FFFF"/>
</svg>
