<svg width="28" height="24" viewBox="0 0 28 24" fill="none" xmlns="http://www.w3.org/2000/svg">
<g clip-path="url(#clip0)">
<path d="M21.8438 11H15.0633V5C15.0633 4.73478 14.9442 4.48043 14.7323 4.29289C14.5204 4.10536 14.2329 4 13.9332 4C13.6335 4 13.3461 4.10536 13.1341 4.29289C12.9222 4.48043 12.8031 4.73478 12.8031 5V11H6.02266C5.72294 11 5.4355 11.1054 5.22357 11.2929C5.01164 11.4804 4.89258 11.7348 4.89258 12C4.89258 12.2652 5.01164 12.5196 5.22357 12.7071C5.4355 12.8946 5.72294 13 6.02266 13H12.8031V19C12.8031 19.2652 12.9222 19.5196 13.1341 19.7071C13.3461 19.8946 13.6335 20 13.9332 20C14.2329 20 14.5204 19.8946 14.7323 19.7071C14.9442 19.5196 15.0633 19.2652 15.0633 19V13H21.8438C22.1435 13 22.431 12.8946 22.6429 12.7071C22.8548 12.5196 22.9739 12.2652 22.9739 12C22.9739 11.7348 22.8548 11.4804 22.6429 11.2929C22.431 11.1054 22.1435 11 21.8438 11Z" fill="black"/>
</g>
<defs>
<clipPath id="clip0">
<rect width="27.122" height="24" fill="white" transform="translate(0.373047)"/>
</clipPath>
</defs>
</svg>
